<?xml version="1.0" ?><svg fill="green" enable-background="new 0 0 32 32" height="32px" id="svg2" version="1.1" viewBox="0 0 32 32" width="32px" xml:space="preserve" xmlns="http://www.w3.org/2000/svg" xmlns:cc="http://creativecommons.org/ns#" xmlns:dc="http://purl.org/dc/elements/1.1/" xmlns:inkscape="http://www.inkscape.org/namespaces/inkscape" xmlns:rdf="http://www.w3.org/1999/02/22-rdf-syntax-ns#" xmlns:sodipodi="http://sodipodi.sourceforge.net/DTD/sodipodi-0.dtd" xmlns:svg="http://www.w3.org/2000/svg"><g id="background"><rect fill="none" height="32" width="32"/></g><g id="user_x5F_half_x5F_edit"><path d="M16,8c2.209,0,4-1.791,4-4s-1.791-4-4-4s-4,1.791-4,4S13.791,8,16,8z M24,14.059C24,12.821,24,12,24,12s0-2-2-2   c-1,0-12,0-12,0s-2,0-2,2v14c0,2,2,2,2,2v4h12v-0.059C22.329,31.978,22.661,32,23,32c4.971-0.002,8.998-4.029,9-9   C31.998,18.366,28.499,14.556,24,14.059z M23,29.883c-3.801-0.009-6.876-3.084-6.885-6.883c0.009-3.801,3.084-6.876,6.885-6.885   c3.799,0.009,6.874,3.084,6.883,6.885C29.874,26.799,26.799,29.874,23,29.883z"/><polygon points="22,27 19,27 19,24  "/><rect height="4.243" transform="matrix(-0.7071 0.7071 -0.7071 -0.7071 56.5269 20.5858)" width="7.071" x="20.464" y="19.879"/></g></svg>